<?xml version="1.0" encoding="utf-8"?>
<!-- Generator: Adobe Illustrator 24.3.0, SVG Export Plug-In . SVG Version: 6.00 Build 0)  -->
<svg version="1.1" id="Слой_1" xmlns="http://www.w3.org/2000/svg" xmlns:xlink="http://www.w3.org/1999/xlink" x="0px" y="0px"
	 viewBox="0 0 56.69 56.69" style="enable-background:new 0 0 56.69 56.69;" xml:space="preserve">
<style type="text/css">
	.st0{fill:#FFFFFF;}
</style>
<g>
	<g id="XMLID_7_">
		<g>
			<path class="st0" d="M13.91,42.23c-0.87-1.51-2.39-2.53-4.12-2.76c0,0-2.62-0.03-0.18,1.62c0,0,1.76,0.84,2.98,3.94
				c0,0,1.56,4.79,9.03,3.17c0,2.23,0,4.3,0,5s-0.49,1.54-1.83,1.29C8.82,50.83,1.42,40.56,1.42,29c0-14.83,12.03-26.86,26.87-26.86
				l0.09,0.02c11.58-0.01,21.86,7.39,25.52,18.37c4.69,14.07-2.92,29.28-17,33.97c-1.37,0.26-1.85-0.58-1.85-1.29
				c0-0.89,0-3.78,0-7.37c0.14-1.84-0.52-3.66-1.82-4.98c5.98-0.67,12.26-2.93,12.26-13.26c0.04-2.67-0.95-5.25-2.77-7.2
				c0.83-2.32,0.73-4.86-0.26-7.11c0,0-2.25-0.72-7.38,2.75c-4.4-1.2-9.05-1.2-13.46,0c-5.13-3.48-7.38-2.75-7.38-2.75
				c-0.99,2.25-1.09,4.79-0.26,7.11c-1.82,1.95-2.81,4.53-2.78,7.2c0,10.29,6.28,12.61,12.25,13.28c-0.98,0.95-1.59,2.23-1.7,3.59
				C20.2,45.15,16.31,46.33,13.91,42.23z"/>
		</g>
		<g>
		</g>
	</g>
</g>
</svg>
