<?xml version="1.0" encoding="utf-8"?>
<!-- Generator: Adobe Illustrator 24.3.0, SVG Export Plug-In . SVG Version: 6.00 Build 0)  -->
<svg version="1.1" id="Слой_1" xmlns="http://www.w3.org/2000/svg" xmlns:xlink="http://www.w3.org/1999/xlink" x="0px" y="0px"
	 viewBox="0 0 56.69 56.69" style="enable-background:new 0 0 56.69 56.69;" xml:space="preserve">
<style type="text/css">
	.st0{fill:#FFFFFF;}
</style>
<g id="XMLID_12_">
	<g id="XMLID_1_">
		<g>
			<path class="st0" d="M28.35,1.42c14.87,0,26.93,12.06,26.93,26.93S43.22,55.28,28.35,55.28S1.42,43.22,1.42,28.35
				S13.47,1.42,28.35,1.42z M43.32,43.31v-6.96v-3.67V29.6c0-3.74-3.07-6.89-6.89-6.89h-1.65c-2.4,0-4.49,1.2-5.77,3.07v-2.84h-5.99
				v20.36h5.99v-3.07V32.3c0.04-1.16,0.54-2.19,1.33-2.93c0.79-0.74,1.85-1.19,3.01-1.19c1.16,0,2.13,0.45,2.83,1.19
				c0.69,0.74,1.1,1.77,1.14,2.93v9.13v1.8v0.07H43.32z M19.43,43.31V22.94h-6.06v20.36H19.43z M20.03,16.28
				c0-2.02-1.65-3.67-3.67-3.67s-3.59,1.65-3.59,3.67s1.57,3.67,3.59,3.67S20.03,18.3,20.03,16.28z"/>
		</g>
		<g>
		</g>
	</g>
</g>
</svg>
