<?xml version="1.0" encoding="utf-8"?>
<!-- Generator: Adobe Illustrator 24.3.0, SVG Export Plug-In . SVG Version: 6.00 Build 0)  -->
<svg version="1.1" id="Слой_1" xmlns="http://www.w3.org/2000/svg" xmlns:xlink="http://www.w3.org/1999/xlink" x="0px"
     y="0px"
     viewBox="0 0 56.69 56.69" style="enable-background:new 0 0 56.69 56.69;" xml:space="preserve">
<style type="text/css">
	.st0{fill:#FFFFFF;}
</style>
    <g id="XMLID_189_">
	<g id="XMLID_13_">
		<g>
			<path class="st0" d="M28.35,55.28c-14.87,0-26.93-12.06-26.93-26.93S13.47,1.42,28.35,1.42s26.93,12.06,26.93,26.93
				S43.22,55.28,28.35,55.28z M42.43,22.42c1.08-7.17,1.2-7.89-5.97-5.26c-7.77,2.99-16.73,7.41-24.14,10.51
				c-1.31,0.6-3.35,1.67-0.72,2.63l4.06,1.43c1.91,0.6,3.7,0.6,5.38-0.6l11.83-8.01c2.63-1.79,3.7-0.96,1.43,1.31l-8.6,8.12
				c-1.08,1.08-1.43,1.91-0.12,2.99l9.32,6.57c2.99,1.67,4.42,0.24,4.78-2.51C40.64,33.89,41.6,28.16,42.43,22.42z"/>
		</g>
        <g>
		</g>
	</g>
</g>
</svg>
